<svg width="14" height="14" viewBox="0 0 14 14" fill="none" xmlns="http://www.w3.org/2000/svg">
<circle cx="7" cy="7" r="7" fill="#833B8D"/>
<path d="M5.81818 9.16548V9.00852C5.82126 8.46993 5.86896 8.0406 5.96129 7.72053C6.0567 7.40045 6.19519 7.14193 6.37678 6.94496C6.55836 6.74799 6.77687 6.56948 7.03232 6.40945C7.22313 6.28634 7.39394 6.15862 7.54474 6.02628C7.69555 5.89394 7.81558 5.74775 7.90483 5.58771C7.99408 5.4246 8.03871 5.24302 8.03871 5.04297C8.03871 4.83061 7.98793 4.64441 7.88636 4.48438C7.7848 4.32434 7.64785 4.20123 7.4755 4.11506C7.30623 4.02888 7.11849 3.98579 6.91229 3.98579C6.71224 3.98579 6.52296 4.03042 6.34446 4.11967C6.16596 4.20585 6.01977 4.33511 5.9059 4.50746C5.79202 4.67673 5.73047 4.88755 5.72124 5.13991H3.83771C3.8531 4.52438 4.00083 4.01657 4.28089 3.61648C4.56096 3.2133 4.93182 2.91323 5.39347 2.71626C5.85511 2.51622 6.36446 2.41619 6.92152 2.41619C7.53397 2.41619 8.07564 2.51776 8.54652 2.72088C9.0174 2.92093 9.38672 3.21177 9.65447 3.59339C9.92223 3.97502 10.0561 4.43513 10.0561 4.97372C10.0561 5.33381 9.99609 5.65388 9.87607 5.93395C9.75911 6.21094 9.59446 6.45715 9.3821 6.67258C9.16974 6.88494 8.91892 7.0773 8.62962 7.24964C8.38648 7.39429 8.18643 7.5451 8.02947 7.70206C7.87559 7.85902 7.76018 8.0406 7.68324 8.2468C7.60938 8.45301 7.5709 8.70691 7.56783 9.00852V9.16548H5.81818ZM6.73224 12.12C6.42448 12.12 6.16134 12.0123 5.94283 11.7969C5.72739 11.5784 5.62121 11.3168 5.62429 11.0121C5.62121 10.7105 5.72739 10.4519 5.94283 10.2365C6.16134 10.0211 6.42448 9.91335 6.73224 9.91335C7.02462 9.91335 7.28161 10.0211 7.5032 10.2365C7.72479 10.4519 7.83712 10.7105 7.8402 11.0121C7.83712 11.2152 7.78326 11.4014 7.67862 11.5707C7.57706 11.7369 7.44318 11.8707 7.27699 11.9723C7.1108 12.0708 6.92921 12.12 6.73224 12.12Z" fill="white"/>
</svg>
